<svg width="643" height="585" viewBox="0 0 643 585" fill="none" xmlns="http://www.w3.org/2000/svg">
<path d="M86.1797 24.7064C86.1797 11.0614 97.2412 0 110.886 0H860.771C874.416 0 885.477 11.0615 885.477 24.7065V545.364H86.1797V24.7064Z" fill="#23213B"/>
<path d="M116.767 579.812C116.501 580.477 115.65 581.887 114.372 582.206C114.239 583.137 113.653 584.999 112.376 584.999H57.677C56.3994 584.999 55.8138 583.137 55.6807 582.206C54.4031 581.887 53.5513 580.477 53.2852 579.812H116.767Z" fill="#23213B"/>
<path d="M918.041 579.812C917.774 580.477 916.923 581.887 915.645 582.206C915.512 583.137 914.926 584.999 913.649 584.999H858.95C857.672 584.999 857.087 583.137 856.954 582.206C855.676 581.887 854.824 580.477 854.558 579.812H918.041Z" fill="#23213B"/>
<path d="M971.004 548.698V544.971H0.00390625V548.698C0.00390625 559.589 0.00390625 565.034 2.09271 569.194C3.93008 572.853 6.86185 575.828 10.4679 577.693C14.5674 579.812 19.934 579.812 30.6671 579.812H940.341C951.074 579.812 956.44 579.812 960.54 577.693C964.146 575.828 967.078 572.853 968.915 569.194C971.004 565.034 971.004 559.589 971.004 548.698Z" fill="#1C1B2D"/>
<path d="M401.293 544.971H570.18C570.18 552.242 564.285 558.137 557.014 558.137H414.459C407.188 558.137 401.293 552.242 401.293 544.971Z" fill="#353447"/>
<path d="M110.195 13.8086C104.006 13.8086 98.9883 18.8063 98.9883 24.9712V514.531H873.031V24.9712C873.031 18.8063 868.013 13.8086 861.824 13.8086H526.286C525.196 13.8086 524.313 14.6916 524.313 15.7807V23.6694C524.313 25.4847 522.84 26.9563 521.023 26.9563H450.633C448.453 26.9563 446.685 25.1904 446.685 23.012V15.7807C446.685 14.6916 445.802 13.8086 444.712 13.8086H110.195Z" fill="#353447"/>
</svg>
