<svg width="23" height="28" viewBox="0 0 23 28" fill="none" xmlns="http://www.w3.org/2000/svg">
<g clip-path="url(#clip0_646_18316)">
<path d="M2.89196 24.0594C3.90895 25.5234 5.29949 27.5252 7.09357 27.5252V27.5217H7.18498C7.86984 27.4782 8.53946 27.299 9.15543 26.9943H9.17267C9.95229 26.6131 10.8069 26.4133 11.6735 26.4096C12.5034 26.4187 13.3208 26.614 14.0664 26.9813H14.0716C14.6946 27.2975 15.38 27.4691 16.0774 27.4834H16.1792C17.9841 27.4565 19.1378 25.9396 20.3451 24.1098C21.1739 22.9147 21.8163 21.5989 22.25 20.2081V20.2011C21.5704 19.9128 20.9494 19.5005 20.4184 18.9848C19.832 18.4273 19.3666 17.7535 19.0513 17.0059C18.7361 16.2583 18.578 15.453 18.5868 14.6408C18.6038 13.5866 18.8836 12.5536 19.4003 11.6366C19.9169 10.7197 20.654 9.94831 21.5438 9.39321C20.9766 8.57825 20.2289 7.90748 19.3599 7.43399C18.4909 6.9605 17.5245 6.69728 16.537 6.66517C16.3724 6.6504 16.2249 6.64258 16.0989 6.64258C15.0096 6.71154 13.9425 6.98436 12.9523 7.44709H12.9316C12.4223 7.69583 11.8757 7.85788 11.3139 7.92667C10.7214 7.86344 10.1448 7.69489 9.61074 7.42885H9.59177C8.73578 7.01954 7.80992 6.77919 6.86419 6.72078H6.78658C5.63538 6.75725 4.51323 7.09379 3.52964 7.69754C2.54603 8.30129 1.73459 9.15163 1.17449 10.1655C0.0454163 12.4005 -0.282374 14.96 0.246607 17.4105C0.663483 19.783 1.5618 22.0432 2.88536 24.0499L2.89196 24.0594Z" fill="white"/>
<path d="M11.0981 6.344C11.1869 6.35197 11.2762 6.35546 11.3655 6.35443C12.0975 6.31719 12.8137 6.12494 13.4672 5.79023C14.1206 5.4555 14.6967 4.98583 15.158 4.41178C16.1802 3.18276 16.6825 1.59846 16.5567 0C15.0016 0.163702 13.5648 0.911959 12.533 2.09555C11.5146 3.26402 10.9984 4.79218 11.0981 6.344Z" fill="white"/>
</g>
<defs>
<clipPath id="clip0_646_18316">
<rect width="23" height="28" fill="white"/>
</clipPath>
</defs>
</svg>
