<svg width="454" height="416" viewBox="0 0 454 416" fill="none" xmlns="http://www.w3.org/2000/svg">
<g clip-path="url(#clip0_646_18331)">
<path d="M393.219 0.00390625C424.366 0.00410799 449.609 25.2432 449.609 56.3818V878.624C449.609 909.763 424.366 935.002 393.219 935.002H56.3838C25.2367 935.002 -0.00771715 909.763 -0.0078125 878.624V56.3818C-0.00778066 25.2431 25.2367 0.00390625 56.3838 0.00390625H393.219ZM451.845 333.943C453.031 333.943 453.993 334.906 453.993 336.092V397.209C453.993 398.395 453.031 399.357 451.845 399.357H449.612V333.943H451.845ZM451.845 158.959C453.031 158.959 453.993 159.92 453.993 161.106V276.496C453.993 277.682 453.031 278.644 451.845 278.644H449.612V158.959H451.845Z" fill="#1C1B2D"/>
<path fill-rule="evenodd" clip-rule="evenodd" d="M440.207 56.3807V878.623C440.207 904.558 419.167 925.595 393.22 925.595H56.3853C30.438 925.595 9.39844 904.558 9.39844 878.623V56.3807C9.39844 30.4457 30.438 9.4082 56.3853 9.4082H393.22C419.167 9.4082 440.207 30.4457 440.207 56.3807Z" fill="#23213B"/>
<path fill-rule="evenodd" clip-rule="evenodd" d="M430.547 56.3805V878.622C430.547 899.215 413.833 915.911 393.222 915.911H56.3876C35.7773 915.911 19.0625 899.215 19.0625 878.622V56.3805C19.0625 35.7883 35.7773 19.0918 56.3876 19.0918H393.222C413.833 19.0918 430.547 35.7883 430.547 56.3805Z" fill="#353447"/>
<path d="M224.815 46.8581C230.707 46.8581 235.483 42.0817 235.483 36.1898C235.483 30.2979 230.707 25.5215 224.815 25.5215C218.924 25.5215 214.148 30.2979 214.148 36.1898C214.148 42.0817 218.924 46.8581 224.815 46.8581Z" fill="#1C1B2D"/>
</g>
<defs>
<clipPath id="clip0_646_18331">
<rect width="454" height="935" fill="white"/>
</clipPath>
</defs>
</svg>
