<svg width="29" height="27" viewBox="0 0 29 27" fill="none" xmlns="http://www.w3.org/2000/svg">
<g clip-path="url(#clip0_646_17988)">
<path opacity="0.4" d="M22.6327 6.78711C26.1013 6.78711 28.9246 9.70209 28.9246 13.2848V20.4064C28.9246 23.9804 26.1084 26.8881 22.6469 26.8881H6.91581C3.44579 26.8881 0.621094 23.9746 0.621094 20.3918V13.2702C0.621094 9.69625 3.43872 6.78711 6.90166 6.78711H8.23193H22.6327Z" fill="white"/>
<path d="M15.5455 19.1578L19.6623 14.9577C20.0868 14.5236 20.0868 13.825 19.6594 13.3924C19.2321 12.9611 18.5429 12.9626 18.1183 13.3952L15.8639 15.6951V1.10681C15.8639 0.495907 15.3757 0 14.7728 0C14.1714 0 13.6846 0.495907 13.6846 1.10681V15.6951L11.4288 13.3952C11.0042 12.9626 10.315 12.9611 9.88766 13.3924C9.67396 13.6094 9.56641 13.8926 9.56641 14.1772C9.56641 14.4589 9.67396 14.7421 9.88482 14.9577L14.0016 19.1578C14.2068 19.3663 14.4841 19.4841 14.7728 19.4841C15.0629 19.4841 15.3403 19.3663 15.5455 19.1578Z" fill="white"/>
</g>
<defs>
<clipPath id="clip0_646_17988">
<rect width="29" height="27" fill="white"/>
</clipPath>
</defs>
</svg>
