<svg width="359" height="217" viewBox="0 0 359 217" fill="none" xmlns="http://www.w3.org/2000/svg">
<path d="M31.7969 9.68684C31.7969 4.65192 35.8785 0.570312 40.9134 0.570312H317.616C322.651 0.570312 326.732 4.65192 326.732 9.68684V201.806H31.7969V9.68684Z" fill="#23213B"/>
<path d="M43.0847 214.518C42.9865 214.763 42.6722 215.283 42.2007 215.401C42.1516 215.744 41.9356 216.431 41.4641 216.431H21.2807C20.8093 216.431 20.5932 215.744 20.5441 215.401C20.0727 215.283 19.7584 214.763 19.6602 214.518H43.0847Z" fill="#23213B"/>
<path d="M338.749 214.518C338.651 214.763 338.336 215.283 337.865 215.401C337.816 215.744 337.6 216.431 337.128 216.431H316.945C316.474 216.431 316.257 215.744 316.208 215.401C315.737 215.283 315.423 214.763 315.324 214.518H338.749Z" fill="#23213B"/>
<path d="M358.292 203.035V201.66H0V203.035C0 207.054 0 209.064 0.770754 210.598C1.44873 211.949 2.53053 213.046 3.86114 213.734C5.37382 214.516 7.35405 214.516 11.3145 214.516H346.978C350.938 214.516 352.918 214.516 354.431 213.734C355.762 213.046 356.844 211.949 357.522 210.598C358.292 209.064 358.292 207.054 358.292 203.035Z" fill="#1C1B2D"/>
<path d="M148.074 201.66H210.392C210.392 204.343 208.217 206.518 205.534 206.518H152.932C150.249 206.518 148.074 204.343 148.074 201.66Z" fill="#353447"/>
<path d="M40.6621 6.16602H164.097C164.223 6.16602 164.325 6.26822 164.325 6.39355V9.06152C164.325 10.1417 165.201 11.0174 166.281 11.0176H192.256C193.202 11.0173 193.969 10.2508 193.969 9.30469V6.39355C193.969 6.26825 194.071 6.16607 194.197 6.16602H318.009C320.018 6.16615 321.644 7.7884 321.644 9.78516V189.929H37.0273V9.78516C37.0273 7.78843 38.6528 6.16619 40.6621 6.16602Z" fill="#353447" stroke="#4F3333"/>
</svg>
