<svg width="667" height="631" viewBox="0 0 667 631" fill="none" xmlns="http://www.w3.org/2000/svg">
<rect x="348.965" y="55.4512" width="318.694" height="660.844" rx="41.1643" transform="rotate(8.64559 348.965 55.4512)" fill="#1C1B2D"/>
<rect x="352.312" y="60.0059" width="309.702" height="652.846" rx="37.6241" transform="rotate(8.64559 352.312 60.0059)" fill="#23213B"/>
<rect x="321.953" y="213.145" width="1.99808" height="46.9889" rx="0.884738" transform="rotate(8.64559 321.953 213.145)" fill="#1C1B2D"/>
<rect x="313.09" y="271.461" width="1.99808" height="46.9889" rx="0.884738" transform="rotate(8.64559 313.09 271.461)" fill="#1C1B2D"/>
<rect x="328.566" y="169.654" width="2.99712" height="22.9946" rx="0.884738" transform="rotate(8.64559 328.566 169.654)" fill="#1C1B2D"/>
<rect x="635.18" y="293.131" width="2.99712" height="72.9828" rx="0.884738" transform="rotate(8.64559 635.18 293.131)" fill="#1C1B2D"/>
<rect x="358.863" y="70.1016" width="292.719" height="634.851" rx="31.0294" transform="rotate(8.64559 358.863 70.1016)" fill="#353447"/>
<rect x="460.527" y="92.6387" width="85.9174" height="24.9941" rx="12.4971" transform="rotate(8.64559 460.527 92.6387)" fill="#1C1B2D"/>
<rect x="2.98438" y="69.7363" width="318.694" height="660.844" rx="41.1643" transform="rotate(-5.06 2.98438 69.7363)" fill="#1C1B2D"/>
<rect x="7.31641" y="73.3672" width="309.702" height="652.846" rx="37.6241" transform="rotate(-5.06 7.31641 73.3672)" fill="#23213B"/>
<rect x="14.1055" y="229.34" width="1.99808" height="46.9889" rx="0.884738" transform="rotate(-5.06 14.1055 229.34)" fill="#1C1B2D"/>
<rect x="19.3086" y="288.096" width="1.99808" height="46.9889" rx="0.884738" transform="rotate(-5.06 19.3086 288.096)" fill="#1C1B2D"/>
<rect x="10.2266" y="185.521" width="2.99712" height="22.9946" rx="0.884738" transform="rotate(-5.06 10.2266 185.521)" fill="#1C1B2D"/>
<rect x="337.367" y="232.834" width="2.99712" height="72.9828" rx="0.884738" transform="rotate(-5.06 337.367 232.834)" fill="#1C1B2D"/>
<rect x="16.0742" y="81.625" width="292.719" height="634.851" rx="31.0294" transform="rotate(-5.06 16.0742 81.625)" fill="#353447"/>
<rect x="120.188" y="79.4316" width="85.9174" height="24.9941" rx="12.4971" transform="rotate(-5.06 120.188 79.4316)" fill="#1C1B2D"/>
</svg>
