<svg width="58" height="47" viewBox="0 0 58 47" fill="none" xmlns="http://www.w3.org/2000/svg">
<g opacity="0.84992">
<path d="M43.699 9.50413C41.2023 6.49198 37.8332 4.32065 34.0516 3.28651C30.2701 2.25237 26.2602 2.4058 22.5694 3.72589C18.8786 5.04597 15.6867 7.46837 13.4295 10.6624C11.1722 13.8565 9.95959 17.6666 9.95703 21.5726V26.7547" stroke="white" stroke-opacity="0.4" stroke-width="4.92496" stroke-linecap="round" stroke-linejoin="round"/>
<path d="M16.0117 37.7559C18.6299 40.5192 22.0206 42.436 25.7448 43.2581C29.4691 44.0803 33.3554 43.7699 36.9005 42.3671C40.4455 40.9643 43.4862 38.5338 45.6288 35.3902C47.7713 32.2466 48.9172 28.5348 48.9178 24.7353V21.2852" stroke="white" stroke-opacity="0.4" stroke-width="4.92496" stroke-linecap="round" stroke-linejoin="round"/>
<path d="M18.581 18.2673C18.5701 18.475 18.5012 18.6769 18.3784 18.852L10.3073 30.2409C10.0846 30.5538 9.71812 30.7326 9.3337 30.7125C8.94928 30.6924 8.60356 30.4764 8.41496 30.1421L1.58318 17.9753C1.38518 17.6212 1.39457 17.1871 1.6114 16.8428C1.82682 16.4968 2.21237 16.2967 2.61913 16.3179L17.5221 17.0959C17.9289 17.1171 18.2913 17.3563 18.4693 17.7228C18.5543 17.8954 18.5908 18.0833 18.581 18.2673Z" fill="white"/>
<path d="M39.8522 28.6351C39.8594 28.4299 39.9239 28.2296 40.042 28.0548L47.8082 16.6799C48.0225 16.3674 48.381 16.1847 48.7605 16.1979C49.1402 16.2112 49.485 16.4182 49.6768 16.7448L56.6275 28.6316C56.829 28.9776 56.8273 29.406 56.6192 29.7495C56.4127 30.0945 56.0358 30.2985 55.6341 30.2845L40.9173 29.7726C40.5156 29.7587 40.1538 29.5289 39.972 29.1704C39.8851 29.0016 39.8458 28.8168 39.8522 28.6351Z" fill="white"/>
</g>
</svg>
