<svg width="43" height="39" viewBox="0 0 43 39" fill="none" xmlns="http://www.w3.org/2000/svg">
<g opacity="0.84992" clip-path="url(#clip0_646_18126)">
<path fill-rule="evenodd" clip-rule="evenodd" d="M42.0855 12.1615H33.173C29.0255 12.1687 25.6655 15.4371 25.658 19.4716C25.6524 23.5153 29.0161 26.7982 33.173 26.8036H42.093V27.4461C42.093 34.4996 37.807 38.6706 30.5539 38.6706H11.541C4.28601 38.6706 0 34.4996 0 27.4461V12.0832C0 5.02962 4.28601 0.875 11.541 0.875H30.5464C37.7995 0.875 42.0855 5.02962 42.0855 12.0832V12.1615ZM9.97512 12.145H21.8454H21.8528H21.8678C22.7565 12.1414 23.4748 11.4371 23.4711 10.5709C23.4673 9.70645 22.7414 9.00764 21.8528 9.01128H9.97512C9.09212 9.01492 8.3756 9.71191 8.37186 10.5727C8.36811 11.4371 9.0865 12.1414 9.97512 12.145Z" fill="white"/>
<path opacity="0.4" d="M29.5435 20.3956C29.9837 22.3929 31.7389 23.7981 33.7428 23.7616H40.5827C41.4164 23.7616 42.0928 23.0727 42.0928 22.2211V16.9055C42.0909 16.0558 41.4164 15.3651 40.5827 15.3633H33.5817C31.3023 15.3706 29.4612 17.2582 29.4648 19.5843C29.4648 19.8567 29.4917 20.1289 29.5435 20.3956Z" fill="white"/>
<path d="M33.675 21.6624C34.8373 21.6624 35.7796 20.7223 35.7796 19.5626C35.7796 18.403 34.8373 17.4629 33.675 17.4629C32.5126 17.4629 31.5703 18.403 31.5703 19.5626C31.5703 20.7223 32.5126 21.6624 33.675 21.6624Z" fill="white"/>
</g>
<defs>
<clipPath id="clip0_646_18126">
<rect width="43" height="39" fill="white"/>
</clipPath>
</defs>
</svg>
