<svg width="42" height="42" viewBox="0 0 42 42" fill="none" xmlns="http://www.w3.org/2000/svg">
<g opacity="0.84992" clip-path="url(#clip0_646_18116)">
<path opacity="0.4" d="M30.716 0H11.3691C4.31878 0 0.324219 3.99456 0.324219 11.0448V30.3733C0.324219 37.4237 4.31878 41.4183 11.3691 41.4183H30.716C37.7663 41.4183 41.7424 37.4237 41.7424 30.3733V11.0448C41.7424 3.99456 37.7663 0 30.716 0Z" fill="white"/>
<path d="M11.4424 15.2598C10.5036 15.2598 9.73047 16.0329 9.73047 16.9901V31.2196C9.73047 32.1584 10.5036 32.9315 11.4424 32.9315C12.3996 32.9315 13.1728 32.1584 13.1728 31.2196V16.9901C13.1728 16.0329 12.3996 15.2598 11.4424 15.2598Z" fill="white"/>
<path d="M21.1065 8.4668C20.1676 8.4668 19.3945 9.23994 19.3945 10.1972V31.2192C19.3945 32.158 20.1676 32.9312 21.1065 32.9312C22.0637 32.9312 22.8368 32.158 22.8368 31.2192V10.1972C22.8368 9.23994 22.0637 8.4668 21.1065 8.4668Z" fill="white"/>
<path d="M30.6445 22.7715C29.6873 22.7715 28.9141 23.5447 28.9141 24.5019V31.2208C28.9141 32.1597 29.6873 32.9327 30.626 32.9327C31.5832 32.9327 32.3564 32.1597 32.3564 31.2208V24.5019C32.3564 23.5447 31.5832 22.7715 30.6445 22.7715Z" fill="white"/>
</g>
<defs>
<clipPath id="clip0_646_18116">
<rect width="42" height="42" fill="white"/>
</clipPath>
</defs>
</svg>
