<svg width="42" height="41" viewBox="0 0 42 41" fill="none" xmlns="http://www.w3.org/2000/svg">
<g opacity="0.84992" clip-path="url(#clip0_646_18098)">
<path opacity="0.4" d="M2.75221 8.51172H26.5494C27.6503 8.51172 28.5438 9.40471 28.5438 10.505C28.5438 11.6053 27.6503 12.4983 26.5494 12.4983H2.75221C1.65131 12.4983 0.757812 11.6053 0.757812 10.505C0.757812 9.40471 1.65131 8.51172 2.75221 8.51172Z" fill="white"/>
<mask id="mask0_646_18098" style="mask-type:alpha" maskUnits="userSpaceOnUse" x="24" y="0" width="18" height="22">
<path fill-rule="evenodd" clip-rule="evenodd" d="M24.418 21.4653V0H41.5791V21.4653H24.418Z" fill="white"/>
</mask>
<g mask="url(#mask0_646_18098)">
<path d="M25.7649 0.183594C26.0163 0.183594 26.2641 0.253592 26.4832 0.390003L40.7355 9.3662C41.1269 9.61389 41.3658 10.0429 41.3658 10.5059C41.3658 10.969 41.1269 11.398 40.7355 11.6457L26.4832 20.6219C26.0684 20.8821 25.544 20.8983 25.1148 20.6596C24.6837 20.4226 24.418 19.9721 24.418 19.4822V1.52975C24.418 1.03975 24.6837 0.589236 25.1148 0.352312C25.3176 0.239234 25.5422 0.183594 25.7649 0.183594Z" fill="white"/>
</g>
<path opacity="0.4" d="M39.319 32.0588H15.5218C14.4208 32.0588 13.5273 31.1658 13.5273 30.0655C13.5273 28.9652 14.4208 28.0723 15.5218 28.0723H39.319C40.4198 28.0723 41.3134 28.9652 41.3134 30.0655C41.3134 31.1658 40.4198 32.0588 39.319 32.0588Z" fill="white"/>
<mask id="mask1_646_18098" style="mask-type:alpha" maskUnits="userSpaceOnUse" x="0" y="19" width="18" height="22">
<path fill-rule="evenodd" clip-rule="evenodd" d="M17.5166 19.1055V40.5707H0.355469V19.1055H17.5166Z" fill="white"/>
</mask>
<g mask="url(#mask1_646_18098)">
<path d="M16.1713 40.387C15.9198 40.387 15.672 40.317 15.453 40.1806L1.20067 31.2044C0.809168 30.9567 0.570312 30.5277 0.570312 30.0646C0.570312 29.6016 0.809168 29.1726 1.20067 28.9249L15.453 19.9488C15.8678 19.6884 16.3922 19.6723 16.8214 19.911C17.2524 20.1479 17.5182 20.5984 17.5182 21.0885V39.0409C17.5182 39.5308 17.2524 39.9814 16.8214 40.2183C16.6184 40.3313 16.394 40.387 16.1713 40.387Z" fill="white"/>
</g>
</g>
<defs>
<clipPath id="clip0_646_18098">
<rect width="42" height="41" fill="white"/>
</clipPath>
</defs>
</svg>
