<svg width="23" height="26" viewBox="0 0 23 26" fill="none" xmlns="http://www.w3.org/2000/svg">
<g clip-path="url(#clip0_646_18324)">
<path d="M16.5181 16.5959L13.0655 13.1367L1.64062 24.7394C1.74984 24.6982 1.8557 24.6485 1.95727 24.5909L16.5181 16.5959Z" fill="white"/>
<path d="M0.00850522 1.93914C0.0144238 3.35445 0.107148 22.2227 0.116026 23.4124C0.0902982 23.6601 0.125802 23.9103 0.219399 24.141C0.312996 24.3716 0.4618 24.5755 0.652648 24.7347L12.5668 12.6362L0.600367 0.642578C0.393848 0.784569 0.229684 0.980218 0.125431 1.2086C0.0211803 1.43697 -0.0192362 1.68949 0.00850522 1.93914Z" fill="white"/>
<path d="M17.16 8.98047L13.5625 12.6336L17.1639 16.2412L22.1139 13.5224C22.7058 13.1947 23.3351 12.3594 22.1139 11.6914L17.16 8.98047Z" fill="white"/>
<path d="M1.95723 0.659347C1.79912 0.5753 1.62689 0.521278 1.44922 0.5L13.0626 12.1343L16.5151 8.62869L1.95723 0.659347Z" fill="white"/>
</g>
<defs>
<clipPath id="clip0_646_18324">
<rect width="23" height="25" fill="white" transform="translate(0 0.5)"/>
</clipPath>
</defs>
</svg>
