<svg width="32" height="32" viewBox="0 0 32 32" fill="none" xmlns="http://www.w3.org/2000/svg">
<g clip-path="url(#clip0_646_18163)">
<path opacity="0.4" d="M22.8494 0H8.34863C3.0643 0 0.0703125 2.99399 0.0703125 8.27832V22.7654C0.0703125 28.0497 3.0643 31.0437 8.34863 31.0437H22.8494C28.1338 31.0437 31.114 28.0497 31.114 22.7654V8.27832C31.114 2.99399 28.1338 0 22.8494 0Z" fill="white"/>
<path d="M24.9989 14.8945V20.5379H19.3555" stroke="white" stroke-width="2.5" stroke-linecap="round" stroke-linejoin="round"/>
<path d="M24.9988 20.5386L18.3613 13.9011C18.2448 13.7846 18.1066 13.6921 17.9544 13.629C17.8022 13.566 17.639 13.5335 17.4743 13.5335C17.3095 13.5335 17.1464 13.566 16.9942 13.629C16.8419 13.6921 16.7037 13.7846 16.5872 13.9011L13.972 16.5163C13.8555 16.6328 13.7173 16.7253 13.5651 16.7883C13.4129 16.8514 13.2497 16.8839 13.085 16.8839C12.9202 16.8839 12.7571 16.8514 12.6049 16.7883C12.4526 16.7253 12.3144 16.6328 12.1979 16.5163L6.1875 10.5059" stroke="white" stroke-width="2.5" stroke-linecap="round" stroke-linejoin="round"/>
</g>
<defs>
<clipPath id="clip0_646_18163">
<rect width="32" height="32" fill="white"/>
</clipPath>
</defs>
</svg>
