<svg width="502" height="592" viewBox="0 0 502 592" fill="none" xmlns="http://www.w3.org/2000/svg">
<rect x="1.99219" y="23.373" width="262.841" height="545.354" rx="41.1643" transform="rotate(-5.06 1.99219 23.373)" fill="#1C1B2D"/>
<rect x="6.23828" y="26.0098" width="255.846" height="538.349" rx="37.6241" transform="rotate(-5.06 6.23828 26.0098)" fill="#23213B"/>
<rect x="11.6523" y="155.119" width="1.99879" height="38.0246" rx="0.884738" transform="rotate(-5.06 11.6523 155.119)" fill="#1C1B2D"/>
<rect x="15.8867" y="202.963" width="1.99879" height="38.0246" rx="0.884738" transform="rotate(-5.06 15.8867 202.963)" fill="#1C1B2D"/>
<rect x="8.47266" y="119.236" width="1.99879" height="19.0123" rx="0.884738" transform="rotate(-5.06 8.47266 119.236)" fill="#1C1B2D"/>
<rect x="277.754" y="157.676" width="1.99879" height="60.0389" rx="0.884738" transform="rotate(-5.06 277.754 157.676)" fill="#1C1B2D"/>
<rect x="13.9141" y="33.3672" width="241.854" height="523.339" rx="31.0294" transform="rotate(-5.06 13.9141 33.3672)" fill="#353447"/>
<rect x="99.0586" y="31.8555" width="70.9572" height="21.0136" rx="10.5068" transform="rotate(-5.06 99.0586 31.8555)" fill="#1C1B2D"/>
<rect x="236.996" y="30.6738" width="262.841" height="545.354" rx="41.1643" transform="rotate(3.61 236.996 30.6738)" fill="#1C1B2D"/>
<rect x="240.797" y="33.9219" width="255.846" height="538.349" rx="37.6241" transform="rotate(3.61 240.797 33.9219)" fill="#23213B"/>
<rect x="226.684" y="162.371" width="1.99879" height="38.0246" rx="0.884738" transform="rotate(3.61 226.684 162.371)" fill="#1C1B2D"/>
<rect x="223.656" y="210.309" width="1.99879" height="38.0246" rx="0.884738" transform="rotate(3.61 223.656 210.309)" fill="#1C1B2D"/>
<rect x="228.949" y="126.42" width="1.99879" height="19.0123" rx="0.884738" transform="rotate(3.61 228.949 126.42)" fill="#1C1B2D"/>
<rect x="489.359" y="205.014" width="1.99879" height="60.0389" rx="0.884738" transform="rotate(3.61 489.359 205.014)" fill="#1C1B2D"/>
<rect x="247.273" y="42.3516" width="241.854" height="523.339" rx="31.0294" transform="rotate(3.61 247.273 42.3516)" fill="#353447"/>
<rect x="331.676" y="53.6934" width="70.9572" height="21.0136" rx="10.5068" transform="rotate(3.61 331.676 53.6934)" fill="#1C1B2D"/>
</svg>
