<svg width="25" height="33" viewBox="0 0 25 33" fill="none" xmlns="http://www.w3.org/2000/svg">
<g clip-path="url(#clip0_646_18178)">
<path d="M6.70703 12.5673V8.34817C6.70703 6.7816 7.32687 5.27919 8.43019 4.17146C9.53351 3.06373 11.0299 2.44141 12.5903 2.44141C14.1506 2.44141 15.647 3.06373 16.7503 4.17146C17.8537 5.27919 18.4735 6.7816 18.4735 8.34817V12.5673" stroke="white" stroke-opacity="0.4" stroke-width="4" stroke-linecap="round" stroke-linejoin="round"/>
<path d="M20.758 11.2656H4.42578C2.21664 11.2656 0.425781 13.0565 0.425781 15.2656V28.6012C0.425781 30.8104 2.21664 32.6012 4.42578 32.6012H20.758C22.9671 32.6012 24.758 30.8104 24.758 28.6012V15.2656C24.758 13.0565 22.9671 11.2656 20.758 11.2656Z" fill="white"/>
</g>
<defs>
<clipPath id="clip0_646_18178">
<rect width="25" height="33" fill="white"/>
</clipPath>
</defs>
</svg>
