<svg width="28" height="33" viewBox="0 0 28 33" fill="none" xmlns="http://www.w3.org/2000/svg">
<g clip-path="url(#clip0_646_18189)">
<path d="M14.3504 32.4428C14.1495 32.4428 13.9486 32.3967 13.7674 32.3029L7.92589 29.279C6.26832 28.4201 4.97167 27.4561 3.95916 26.3331C1.74309 23.8772 0.510122 20.7245 0.490526 17.4541L0.421937 6.69014C0.413771 5.44784 1.21561 4.33279 2.41428 3.91285L13.1403 0.173226C13.7772 -0.0542382 14.4876 -0.0574195 15.1359 0.162091L25.9027 3.77447C27.1079 4.1769 27.9228 5.284 27.9293 6.52471L27.9979 17.2966C28.0192 20.5622 26.8287 23.7276 24.6469 26.2107C23.6458 27.3496 22.3606 28.3278 20.7193 29.2027L14.9301 32.2949C14.7505 32.3919 14.5512 32.4412 14.3504 32.4428Z" fill="white"/>
<path d="M13.107 19.987C12.7934 19.9886 12.4799 19.8756 12.2382 19.6434L9.1288 16.653C8.64868 16.1885 8.64378 15.4345 9.119 14.9669C9.59423 14.4976 10.37 14.4929 10.8517 14.9557L13.089 17.1063L18.5516 11.7203C19.0285 11.2511 19.8042 11.2463 20.2843 11.7092C20.7661 12.1737 20.771 12.9292 20.2958 13.3953L13.9709 19.6323C13.7324 19.8677 13.4205 19.9854 13.107 19.987Z" fill="#0328EE"/>
</g>
<defs>
<clipPath id="clip0_646_18189">
<rect width="28" height="33" fill="white"/>
</clipPath>
</defs>
</svg>
