<svg width="36" height="37" viewBox="0 0 36 37" fill="none" xmlns="http://www.w3.org/2000/svg">
<g clip-path="url(#clip0_646_18172)">
<path d="M17.5917 36.1131C27.3073 36.1131 35.1834 28.237 35.1834 18.5214C35.1834 8.80576 27.3073 0.929688 17.5917 0.929688C7.87607 0.929688 0 8.80576 0 18.5214C0 28.237 7.87607 36.1131 17.5917 36.1131Z" fill="white" fill-opacity="0.4"/>
<path d="M21.033 7.65725C21.033 7.2118 20.4944 6.98872 20.1795 7.3037L8.70919 18.7739C8.58876 18.8945 8.50676 19.048 8.47356 19.2152C8.44035 19.3823 8.45743 19.5556 8.52262 19.713C8.58782 19.8705 8.69821 20.0051 8.83986 20.0998C8.98151 20.1946 9.14806 20.2452 9.31848 20.2454H13.6469C13.923 20.2454 14.1469 20.4693 14.1469 20.7454V29.3848C14.1469 29.8302 14.6854 30.0533 15.0004 29.7383L26.4707 18.2681C26.5911 18.1475 26.6731 17.9939 26.7063 17.8268C26.7395 17.6596 26.7224 17.4864 26.6572 17.3289C26.592 17.1715 26.4816 17.0369 26.34 16.9421C26.1983 16.8474 26.0318 16.7967 25.8614 16.7966H21.533C21.2569 16.7966 21.033 16.5727 21.033 16.2966V7.65725Z" fill="white"/>
</g>
<defs>
<clipPath id="clip0_646_18172">
<rect width="36" height="37" fill="white"/>
</clipPath>
</defs>
</svg>
