<svg width="32" height="32" viewBox="0 0 32 32" fill="none" xmlns="http://www.w3.org/2000/svg">
<g clip-path="url(#clip0_646_18205)">
<path d="M16.2417 0.888672C7.32014 0.888672 0.855469 8.16718 0.855469 16.2442C0.855469 18.8239 1.60789 21.4804 2.92846 23.9066C3.17415 24.3058 3.20486 24.8125 3.03595 25.2886L2.00713 28.7282C1.7768 29.5574 2.48315 30.1716 3.26628 29.9259L6.36809 29.0046C7.21265 28.7282 7.87293 29.0814 8.6576 29.5574C10.8995 30.878 13.6927 31.5536 16.211 31.5536C23.8273 31.5536 31.5665 25.6724 31.5665 16.1981C31.5665 8.02898 24.9636 0.888672 16.2417 0.888672Z" fill="white"/>
<path fill-rule="evenodd" clip-rule="evenodd" d="M9.10222 18.2259C8.02734 18.2259 7.13672 17.3353 7.13672 16.2604C7.13672 15.1702 8.01198 14.2949 9.10222 14.2949C10.1924 14.2949 11.0677 15.1702 11.0677 16.2604C11.0677 17.3353 10.1924 18.2105 9.10222 18.2259ZM16.1816 18.2261C15.0914 18.2108 14.2161 17.3355 14.2161 16.2453C14.2161 15.1704 15.1067 14.2798 16.1816 14.2951C17.2719 14.2951 18.1471 15.1704 18.1471 16.2606C18.1471 17.3355 17.2719 18.2261 16.1816 18.2261ZM21.2948 16.2608C21.2948 17.3357 22.17 18.2263 23.2603 18.2263C24.3505 18.2263 25.2258 17.3357 25.2258 16.2608C25.2258 15.1706 24.3505 14.2953 23.2603 14.2953C22.17 14.2953 21.2948 15.1706 21.2948 16.2608Z" fill="#0328EE"/>
</g>
<defs>
<clipPath id="clip0_646_18205">
<rect width="32" height="32" fill="white"/>
</clipPath>
</defs>
</svg>
