<svg width="37" height="37" viewBox="0 0 37 37" fill="none" xmlns="http://www.w3.org/2000/svg">
<g clip-path="url(#clip0_646_18196)">
<path opacity="0.4" d="M18.211 36.4319C16.8105 36.4319 15.4118 35.9002 14.3427 34.8385L13.0132 33.5089C12.4978 32.9953 11.8075 32.7112 11.0754 32.7094H9.205C6.18175 32.7094 3.72126 30.2489 3.72126 27.2257V25.3535C3.71944 24.6231 3.43532 23.9329 2.91991 23.4138L1.61227 22.108C-0.529506 19.979 -0.538612 16.4986 1.59223 14.355L2.92174 13.0237C3.43532 12.5083 3.71944 11.818 3.72126 11.0859V9.21727C3.72126 6.1922 6.18175 3.73171 9.205 3.73171H11.0772C11.8075 3.73171 12.496 3.44759 13.015 2.92854L14.3245 1.62272C16.4535 -0.519054 19.9321 -0.529982 22.0775 1.60268L23.407 2.93219C23.9242 3.44759 24.6126 3.73171 25.343 3.73171H27.2152C30.2384 3.73171 32.6989 6.1922 32.6989 9.21727V11.0877C32.7008 11.818 32.9849 12.5083 33.5003 13.0273L34.8079 14.335C35.8442 15.3658 36.4179 16.739 36.4234 18.2051C36.427 19.6621 35.8661 21.0334 34.8443 22.0697C34.8261 22.0879 34.8097 22.108 34.7915 22.1244L33.4985 23.4174C32.9849 23.9328 32.7008 24.6231 32.6989 25.3553V27.2257C32.6989 30.2489 30.2384 32.7094 27.2152 32.7094H25.343C24.6126 32.7112 23.9224 32.9953 23.4052 33.5107L22.0957 34.8184C21.0285 35.8929 19.6188 36.4319 18.211 36.4319Z" fill="white"/>
<path d="M8.93698 23.4305C8.87821 23.4305 8.82923 23.4305 8.79005 23.4305C8.76066 23.4403 8.72148 23.4452 8.67251 23.4452C8.43742 23.4452 8.25131 23.3865 8.11417 23.2689C7.98683 23.1612 7.92317 23.024 7.92317 22.8575C7.92317 22.6714 8.03091 22.4853 8.24641 22.2992C8.86351 22.0151 9.39246 21.6576 9.83325 21.2266C10.2741 20.7956 10.6218 20.2765 10.8765 19.6691C10.661 19.7475 10.4455 19.8063 10.23 19.8455C10.0145 19.8748 9.79407 19.8895 9.56877 19.8895C9.04962 19.8895 8.59904 19.8063 8.21702 19.6398C7.8448 19.4732 7.53135 19.2626 7.27668 19.008C7.022 18.7435 6.83099 18.4496 6.70365 18.1264C6.58611 17.8031 6.52734 17.4848 6.52734 17.1713C6.52734 16.8089 6.6008 16.4465 6.74773 16.0841C6.89466 15.7118 7.10526 15.3837 7.37953 15.0996C7.66359 14.8058 8.01132 14.5707 8.42273 14.3944C8.84392 14.2083 9.32879 14.1152 9.87733 14.1152C10.3867 14.1152 10.8275 14.2132 11.1997 14.4091C11.5719 14.605 11.8756 14.8646 12.1107 15.1878C12.3458 15.5012 12.5172 15.8637 12.6249 16.2751C12.7327 16.6865 12.7768 17.1077 12.7572 17.5387C12.7572 18.1754 12.669 18.7876 12.4927 19.3753C12.3262 19.9532 12.0764 20.4969 11.7434 21.0062C11.4201 21.5058 11.0185 21.9612 10.5385 22.3727C10.0684 22.7841 9.53449 23.1367 8.93698 23.4305ZM9.55408 18.6113C9.85774 18.6113 10.1614 18.5476 10.4651 18.4202C10.7785 18.2929 11.0626 18.1313 11.3173 17.9354C11.2977 17.9354 11.2928 17.8913 11.3026 17.8031C11.3222 17.7052 11.3319 17.6121 11.3319 17.524C11.3319 17.2497 11.3075 16.9852 11.2585 16.7306C11.2095 16.4661 11.1262 16.2359 11.0087 16.04C10.8912 15.8343 10.7344 15.6727 10.5385 15.5551C10.3426 15.4278 10.0977 15.3641 9.80386 15.3641C9.55898 15.3641 9.32389 15.4131 9.0986 15.511C8.8831 15.5992 8.6872 15.7265 8.51088 15.8931C8.34436 16.0498 8.21213 16.2408 8.11417 16.4661C8.01622 16.6914 7.96724 16.9314 7.96724 17.186C7.96724 17.4113 8.01132 17.6121 8.09948 17.7885C8.19743 17.955 8.31987 18.1019 8.4668 18.2292C8.61373 18.3566 8.78025 18.4545 8.96636 18.5231C9.16227 18.5819 9.35818 18.6113 9.55408 18.6113Z" fill="white"/>
<path d="M16.0463 23.4305C15.9876 23.4305 15.9386 23.4305 15.8994 23.4305C15.87 23.4403 15.8308 23.4452 15.7819 23.4452C15.5468 23.4452 15.3607 23.3865 15.2235 23.2689C15.0962 23.1612 15.0325 23.024 15.0325 22.8575C15.0325 22.6714 15.1403 22.4853 15.3558 22.2992C15.9729 22.0151 16.5018 21.6576 16.9426 21.2266C17.3834 20.7956 17.7311 20.2765 17.9858 19.6691C17.7703 19.7475 17.5548 19.8063 17.3393 19.8455C17.1238 19.8748 16.9034 19.8895 16.6781 19.8895C16.159 19.8895 15.7084 19.8063 15.3264 19.6398C14.9542 19.4732 14.6407 19.2626 14.386 19.008C14.1314 18.7435 13.9403 18.4496 13.813 18.1264C13.6955 17.8031 13.6367 17.4848 13.6367 17.1713C13.6367 16.8089 13.7102 16.4465 13.8571 16.0841C14.004 15.7118 14.2146 15.3837 14.4889 15.0996C14.7729 14.8058 15.1207 14.5707 15.5321 14.3944C15.9533 14.2083 16.4381 14.1152 16.9867 14.1152C17.496 14.1152 17.9368 14.2132 18.3091 14.4091C18.6813 14.605 18.9849 14.8646 19.22 15.1878C19.4551 15.5012 19.6265 15.8637 19.7343 16.2751C19.842 16.6865 19.8861 17.1077 19.8665 17.5387C19.8665 18.1754 19.7783 18.7876 19.602 19.3753C19.4355 19.9532 19.1857 20.4969 18.8527 21.0062C18.5294 21.5058 18.1278 21.9612 17.6479 22.3727C17.1777 22.7841 16.6439 23.1367 16.0463 23.4305ZM16.6634 18.6113C16.9671 18.6113 17.2707 18.5476 17.5744 18.4202C17.8879 18.2929 18.1719 18.1313 18.4266 17.9354C18.407 17.9354 18.4021 17.8913 18.4119 17.8031C18.4315 17.7052 18.4413 17.6121 18.4413 17.524C18.4413 17.2497 18.4168 16.9852 18.3678 16.7306C18.3188 16.4661 18.2356 16.2359 18.118 16.04C18.0005 15.8343 17.8438 15.6727 17.6479 15.5551C17.452 15.4278 17.2071 15.3641 16.9132 15.3641C16.6683 15.3641 16.4333 15.4131 16.208 15.511C15.9925 15.5992 15.7966 15.7265 15.6202 15.8931C15.4537 16.0498 15.3215 16.2408 15.2235 16.4661C15.1256 16.6914 15.0766 16.9314 15.0766 17.186C15.0766 17.4113 15.1207 17.6121 15.2088 17.7885C15.3068 17.955 15.4292 18.1019 15.5762 18.2292C15.7231 18.3566 15.8896 18.4545 16.0757 18.5231C16.2716 18.5819 16.4675 18.6113 16.6634 18.6113Z" fill="white"/>
<path d="M27.8398 13.1452C27.9867 13.008 28.1728 12.9395 28.3981 12.9395C28.5842 12.9395 28.741 12.9982 28.8683 13.1158C29.0054 13.2333 29.074 13.3803 29.074 13.5566C29.074 13.6056 29.0691 13.6545 29.0593 13.7035C29.0495 13.7427 29.0348 13.7868 29.0152 13.8357L25.8562 18.3759L22.4769 23.2098C22.3887 23.3274 22.2859 23.4058 22.1683 23.4449C22.0508 23.4841 21.943 23.5037 21.8451 23.5037C21.659 23.5037 21.4973 23.4498 21.3602 23.3421C21.2329 23.2343 21.1692 23.0874 21.1692 22.9013C21.1692 22.8327 21.179 22.7642 21.1986 22.6956C21.2182 22.6172 21.2525 22.5389 21.3014 22.4605C21.8892 21.6377 22.4475 20.8443 22.9764 20.0802C23.5054 19.3162 24.0343 18.5571 24.5633 17.8028C25.0824 17.0584 25.6114 16.3042 26.1501 15.5401C26.6888 14.7761 27.2472 13.9827 27.8251 13.1599L27.8398 13.1452ZM20.4492 15.2904C20.4688 14.9279 20.5472 14.6145 20.6843 14.35C20.8215 14.0855 20.9929 13.8651 21.1986 13.6888C21.4043 13.5125 21.6394 13.3852 21.9038 13.3068C22.1683 13.2186 22.4328 13.1746 22.6973 13.1746C22.9715 13.1746 23.2409 13.2186 23.5054 13.3068C23.7699 13.395 24.0049 13.5272 24.2106 13.7035C24.4261 13.8798 24.5976 14.1002 24.7249 14.3647C24.8522 14.6194 24.9159 14.9132 24.9159 15.2463C24.9159 15.5793 24.8473 15.883 24.7102 16.1572C24.5829 16.4315 24.4114 16.6715 24.1959 16.8772C23.9805 17.0731 23.7356 17.2249 23.4613 17.3327C23.187 17.4404 22.903 17.4943 22.6091 17.4943C22.3544 17.4943 22.0998 17.4453 21.8451 17.3474C21.6002 17.2494 21.3749 17.1074 21.1692 16.9213C20.9733 16.7352 20.8068 16.505 20.6696 16.2307C20.5423 15.9564 20.4688 15.643 20.4492 15.2904ZM25.5036 21.241C25.5232 20.8884 25.5967 20.5847 25.724 20.33C25.8611 20.0656 26.0326 19.8501 26.2383 19.6835C26.444 19.5072 26.6742 19.3799 26.9288 19.3015C27.1835 19.2134 27.4431 19.1693 27.7076 19.1693C27.972 19.1693 28.2316 19.2134 28.4863 19.3015C28.7508 19.3897 28.9858 19.5219 29.1915 19.6982C29.407 19.8648 29.5785 20.0754 29.7058 20.33C29.8331 20.5749 29.8968 20.8639 29.8968 21.1969C29.8968 21.5397 29.8331 21.8483 29.7058 22.1226C29.5883 22.3968 29.4266 22.627 29.2209 22.8131C29.0152 22.9992 28.7752 23.1413 28.501 23.2392C28.2365 23.3372 27.9622 23.3862 27.6782 23.3862C27.4333 23.3862 27.1884 23.3421 26.9435 23.2539C26.6986 23.1756 26.4734 23.0482 26.2677 22.8719C26.062 22.6956 25.8905 22.4752 25.7534 22.2107C25.6163 21.9365 25.533 21.6132 25.5036 21.241ZM22.6385 14.4382C22.521 14.4382 22.4181 14.4675 22.3299 14.5263C22.2516 14.5753 22.183 14.6439 22.1242 14.732C22.0655 14.8104 22.0165 14.9034 21.9773 15.0112C21.9479 15.1091 21.9234 15.2071 21.9038 15.305C21.9332 15.6087 22.0263 15.8291 22.183 15.9662C22.3397 16.1034 22.5161 16.1719 22.712 16.1719C22.8981 16.1719 23.0695 16.0985 23.2262 15.9515C23.3927 15.8046 23.476 15.5842 23.476 15.2904C23.476 15.0553 23.3878 14.8545 23.2115 14.6879C23.045 14.5214 22.854 14.4382 22.6385 14.4382ZM27.6929 20.4623C27.4382 20.4623 27.257 20.5455 27.1492 20.712C27.0513 20.8786 26.9876 21.0549 26.9582 21.241C26.9876 21.5251 27.0758 21.7406 27.2227 21.8875C27.3696 22.0246 27.541 22.0932 27.7369 22.0932C27.9035 22.0932 28.0651 22.0246 28.2218 21.8875C28.3785 21.7406 28.4569 21.5251 28.4569 21.241C28.4569 20.9961 28.3785 20.8051 28.2218 20.668C28.0651 20.5308 27.8888 20.4623 27.6929 20.4623Z" fill="white"/>
</g>
<defs>
<clipPath id="clip0_646_18196">
<rect width="37" height="37" fill="white"/>
</clipPath>
</defs>
</svg>
